<?xml version="1.0" standalone="no"?>
<!DOCTYPE svg PUBLIC "-//W3C//DTD SVG 20010904//EN"
 "http://www.w3.org/TR/2001/REC-SVG-20010904/DTD/svg10.dtd">
<svg version="1.0" xmlns="http://www.w3.org/2000/svg"
 width="700.000000pt" height="700.000000pt" viewBox="0 0 700.000000 700.000000"
 preserveAspectRatio="xMidYMid meet">
<metadata>
Created by potrace 1.14, written by Peter Selinger 2001-2017
</metadata>
<g transform="translate(0.000000,700.000000) scale(0.100000,-0.100000)"
fill="#000000" stroke="none">
<path d="M3390 6986 c-111 -32 -171 -76 -333 -243 -96 -99 -152 -128 -242
-127 -68 0 -125 18 -260 79 -189 87 -371 77 -511 -26 -64 -47 -115 -109 -143
-171 -50 -114 -59 -134 -66 -158 -16 -55 -70 -142 -104 -169 -64 -51 -97 -59
-252 -61 -210 -2 -240 -7 -327 -48 -102 -48 -189 -144 -232 -257 -20 -53 -23
-82 -26 -255 -4 -199 -11 -242 -47 -295 -44 -64 -73 -81 -272 -166 -178 -75
-255 -140 -309 -260 -59 -130 -56 -244 10 -403 95 -230 101 -260 68 -359 -13
-38 -40 -73 -133 -168 -64 -67 -128 -139 -142 -162 -40 -65 -62 -144 -64 -227
-4 -153 41 -241 205 -405 208 -207 217 -251 111 -517 -67 -170 -72 -186 -75
-268 -6 -151 76 -308 203 -389 26 -17 103 -54 170 -81 149 -60 181 -79 221
-133 43 -59 52 -102 52 -267 1 -165 14 -236 60 -321 55 -104 188 -205 294
-225 21 -3 47 -8 58 -10 10 -2 96 -4 190 -4 162 -2 175 -3 221 -27 78 -39 106
-77 170 -228 79 -187 95 -215 154 -275 86 -87 179 -129 302 -135 94 -5 138 7
299 76 106 45 135 53 195 55 97 4 142 -21 275 -152 58 -58 119 -114 135 -125
83 -55 197 -84 299 -75 132 11 197 50 363 213 148 145 186 167 283 167 55 0
84 -8 195 -53 165 -68 212 -82 288 -85 159 -8 316 74 402 209 17 28 55 109 83
180 57 141 91 188 165 227 37 19 65 23 232 29 196 7 241 16 322 60 58 31 136
109 172 173 48 83 59 142 60 326 1 91 4 181 8 200 17 97 76 157 218 219 230
101 245 109 308 173 100 101 139 201 133 342 -4 84 -11 108 -95 306 -35 83
-40 103 -37 160 3 89 24 124 156 260 163 168 202 249 196 403 -4 100 -8 116
-46 194 -22 45 -65 96 -160 195 -150 153 -175 194 -174 285 0 57 26 137 99
308 72 170 49 349 -62 486 -56 69 -122 110 -279 173 -152 62 -197 94 -237 170
-18 36 -22 64 -28 236 -5 143 -11 207 -23 240 -54 146 -174 255 -325 295 -29
7 -122 13 -232 14 -159 2 -190 5 -229 22 -72 32 -113 80 -160 188 -105 238
-127 276 -188 333 -98 90 -196 128 -322 124 -91 -4 -116 -11 -305 -91 -101
-42 -116 -46 -175 -42 -91 6 -127 28 -258 156 -116 113 -163 148 -242 176 -59
21 -202 27 -260 11z m-6 -1301 c205 -27 430 -121 607 -256 518 -394 617 -1010
250 -1564 -67 -102 -219 -249 -337 -328 -91 -61 -257 -147 -282 -147 -24 0
-20 -25 28 -151 229 -606 482 -1011 741 -1185 120 -79 199 -104 325 -101 83 2
98 6 167 40 125 62 222 166 262 282 17 52 23 179 12 247 -21 119 -89 222 -176
264 -42 20 -53 22 -118 23 -42 1 -57 6 -78 26 -26 26 -31 50 -17 73 23 36 275
38 374 3 135 -47 227 -129 288 -255 84 -176 89 -397 12 -556 -29 -61 -89 -145
-139 -197 -230 -238 -541 -310 -833 -190 -398 162 -746 657 -1016 1447 -30 85
-58 154 -63 153 -231 -56 -547 -63 -806 -18 -49 9 -100 18 -112 22 -17 4 -23
1 -23 -12 0 -9 -6 -31 -14 -48 -8 -18 -51 -122 -96 -232 -44 -110 -85 -209
-90 -220 -5 -11 -16 -37 -24 -57 -74 -177 -96 -216 -144 -258 -64 -57 -163
-104 -221 -104 l-46 -1 1 35 c1 20 25 85 58 152 31 64 67 141 80 170 13 29 35
78 49 108 15 30 76 163 136 294 l110 239 -140 69 c-158 79 -203 116 -216 180
-11 51 -3 92 19 96 8 2 69 -24 134 -56 65 -33 151 -72 189 -87 39 -15 73 -29
77 -32 11 -6 42 61 167 357 62 146 119 279 126 295 34 76 138 344 185 475 28
80 61 167 72 193 50 115 153 92 230 -49 14 -27 74 -195 133 -374 59 -179 111
-334 115 -345 5 -11 23 -64 40 -118 38 -117 35 -156 -15 -215 -38 -44 -69 -57
-89 -37 -7 7 -34 80 -60 162 -26 81 -81 254 -122 383 -120 377 -120 377 -129
349 -10 -32 -283 -749 -295 -774 -23 -48 -140 -358 -137 -361 2 -2 21 -6 43
-10 21 -3 41 -7 44 -9 3 -2 41 -6 85 -11 236 -22 441 -2 640 62 87 28 268 111
273 125 2 5 9 9 14 9 14 0 104 67 185 137 69 60 180 193 209 251 10 20 24 44
30 52 16 23 61 139 78 200 43 159 45 350 7 485 -45 157 -148 313 -271 413
-222 180 -576 287 -820 250 -90 -14 -100 -16 -153 -34 -194 -63 -371 -197
-481 -364 -26 -39 -54 -74 -62 -77 -32 -12 -74 93 -75 189 -1 72 27 129 106
215 154 167 409 289 650 310 39 3 72 7 74 9 5 5 218 -4 275 -11z"/>
</g>
</svg>
